<svg width="85" height="20" viewBox="0 0 85 20" fill="none" xmlns="http://www.w3.org/2000/svg">
<path id="Vector 535" d="M84.4999 1.98193C84.4899 1.15356 83.8103 0.490129 82.9819 0.500111L69.4829 0.662748C68.6545 0.672729 67.9911 1.35234 68.0011 2.18071C68.0111 3.00908 68.6907 3.67251 69.5191 3.66253L81.5182 3.51796L81.6627 15.5171C81.6727 16.3455 82.3523 17.0089 83.1807 16.9989C84.0091 16.9889 84.6725 16.3093 84.6625 15.481L84.4999 1.98193ZM83 2C81.9266 0.952196 81.9271 0.951721 81.9274 0.951384C81.9274 0.951452 81.9276 0.951248 81.9274 0.951385C81.9272 0.951658 81.9264 0.952473 81.925 0.953821C81.9224 0.956518 81.9176 0.961351 81.9107 0.968271C81.897 0.982111 81.8748 1.00429 81.8442 1.03441C81.7832 1.09464 81.6888 1.18659 81.5618 1.30698C81.3079 1.54779 80.9236 1.90219 80.4149 2.34406C79.397 3.22807 77.8827 4.46042 75.9179 5.83276C71.9848 8.57981 66.2677 11.8729 59.1308 14.0662C44.932 18.4297 24.9406 18.5018 1.91386 0.810526L0.0861359 3.18948C23.9166 21.4982 44.9251 21.5703 60.0121 16.9338C67.518 14.6271 73.5152 11.1702 77.6357 8.29224C79.6976 6.85208 81.295 5.55318 82.382 4.60907C82.9257 4.13687 83.3422 3.753 83.6259 3.48404C83.7678 3.34954 83.8765 3.24374 83.9513 3.16994C83.9887 3.13304 84.0176 3.10413 84.038 3.08364C84.0482 3.07339 84.0562 3.06525 84.0621 3.05926C84.0651 3.05627 84.0675 3.05381 84.0694 3.0519C84.0703 3.05094 84.0713 3.04992 84.0718 3.04944C84.0726 3.04856 84.0734 3.04781 83 2Z" fill="black"/>
</svg>
