<svg width="33" height="33" viewBox="0 0 33 33" fill="none" xmlns="http://www.w3.org/2000/svg">
<g id="Gift">
<path id="Vector" d="M27.3528 9.51053H22.9678C23.0165 9.46928 23.0665 9.42928 23.114 9.38553C23.4937 9.04826 23.7996 8.63627 24.0128 8.17535C24.2259 7.71443 24.3417 7.21448 24.3528 6.70678C24.3692 6.15138 24.2719 5.59847 24.0669 5.08202C23.862 4.56556 23.5536 4.09645 23.1607 3.70349C22.7679 3.31053 22.2989 3.002 21.7825 2.79686C21.2661 2.59172 20.7132 2.49428 20.1578 2.51053C19.6499 2.52147 19.1497 2.63714 18.6885 2.85029C18.2274 3.06345 17.8152 3.36949 17.4778 3.74928C17.0109 4.2904 16.6313 4.90109 16.3528 5.55928C16.0743 4.90109 15.6947 4.2904 15.2278 3.74928C14.8904 3.36949 14.4782 3.06345 14.017 2.85029C13.5559 2.63714 13.0557 2.52147 12.5478 2.51053C11.9924 2.49428 11.4395 2.59172 10.9231 2.79686C10.4067 3.002 9.93769 3.31053 9.54484 3.70349C9.152 4.09645 8.84361 4.56556 8.63862 5.08202C8.43363 5.59847 8.33636 6.15138 8.35278 6.70678C8.36389 7.21448 8.47964 7.71443 8.69279 8.17535C8.90594 8.63627 9.2119 9.04826 9.59153 9.38553C9.63903 9.42678 9.68903 9.46678 9.73778 9.51053H5.35278C4.82235 9.51053 4.31364 9.72125 3.93857 10.0963C3.5635 10.4714 3.35278 10.9801 3.35278 11.5105V15.5105C3.35278 16.041 3.5635 16.5497 3.93857 16.9247C4.31364 17.2998 4.82235 17.5105 5.35278 17.5105V25.5105C5.35278 26.041 5.5635 26.5497 5.93857 26.9247C6.31364 27.2998 6.82235 27.5105 7.35278 27.5105H25.3528C25.8832 27.5105 26.3919 27.2998 26.767 26.9247C27.1421 26.5497 27.3528 26.041 27.3528 25.5105V17.5105C27.8832 17.5105 28.3919 17.2998 28.767 16.9247C29.1421 16.5497 29.3528 16.041 29.3528 15.5105V11.5105C29.3528 10.9801 29.1421 10.4714 28.767 10.0963C28.3919 9.72125 27.8832 9.51053 27.3528 9.51053ZM18.9778 5.07428C19.1361 4.89943 19.3289 4.75921 19.544 4.66241C19.7591 4.56561 19.9919 4.51433 20.2278 4.51178H20.289C20.5655 4.51351 20.8388 4.5704 21.093 4.67912C21.3472 4.78784 21.5771 4.94621 21.7694 5.14493C21.9616 5.34365 22.1122 5.57874 22.2123 5.83641C22.3125 6.09409 22.3603 6.36917 22.3528 6.64553C22.3502 6.88141 22.299 7.11421 22.2022 7.32932C22.1054 7.54443 21.9651 7.7372 21.7903 7.89553C20.604 8.94553 18.6353 9.31553 17.4153 9.44553C17.5653 8.12178 17.9778 6.19803 18.9778 5.07428ZM10.9665 5.11928C11.354 4.7319 11.8787 4.51312 12.4265 4.51053H12.4878C12.7237 4.51308 12.9565 4.56436 13.1716 4.66116C13.3867 4.75796 13.5794 4.89819 13.7378 5.07303C14.7865 6.25803 15.1565 8.22303 15.2865 9.43803C14.0715 9.31303 12.1065 8.93803 10.9215 7.88928C10.7467 7.73095 10.6065 7.53818 10.5097 7.32307C10.4129 7.10796 10.3616 6.87516 10.359 6.63928C10.3513 6.35833 10.4007 6.07872 10.5043 5.81744C10.6078 5.55615 10.7634 5.31863 10.9615 5.11928H10.9665ZM5.35278 11.5105H15.3528V15.5105H5.35278V11.5105ZM7.35278 17.5105H15.3528V25.5105H7.35278V17.5105ZM25.3528 25.5105H17.3528V17.5105H25.3528V25.5105ZM27.3528 15.5105H17.3528V11.5105H27.3528V15.5105Z" fill="black"/>
</g>
</svg>
