<svg width="33" height="33" viewBox="0 0 33 33" fill="none" xmlns="http://www.w3.org/2000/svg">
<g id="Gift">
<path id="Vector" d="M27.6663 9.15836H23.2813C23.33 9.11711 23.38 9.07711 23.4275 9.03336C23.8071 8.69608 24.1131 8.2841 24.3263 7.82318C24.5394 7.36225 24.6551 6.86231 24.6663 6.35461C24.6827 5.7992 24.5854 5.2463 24.3804 4.72985C24.1754 4.21339 23.867 3.74428 23.4742 3.35132C23.0814 2.95836 22.6123 2.64983 22.0959 2.44469C21.5795 2.23954 21.0267 2.14211 20.4713 2.15836C19.9634 2.1693 19.4632 2.28497 19.002 2.49812C18.5409 2.71127 18.1287 3.01732 17.7913 3.39711C17.3244 3.93823 16.9448 4.54891 16.6663 5.20711C16.3877 4.54891 16.0082 3.93823 15.5413 3.39711C15.2038 3.01732 14.7917 2.71127 14.3305 2.49812C13.8694 2.28497 13.3692 2.1693 12.8613 2.15836C12.3058 2.14211 11.753 2.23954 11.2366 2.44469C10.7202 2.64983 10.2512 2.95836 9.85832 3.35132C9.46548 3.74428 9.15709 4.21339 8.9521 4.72985C8.74711 5.2463 8.64984 5.7992 8.66626 6.35461C8.67737 6.86231 8.79312 7.36225 9.00627 7.82318C9.21941 8.2841 9.52537 8.69608 9.90501 9.03336C9.95251 9.07461 10.0025 9.11461 10.0513 9.15836H5.66626C5.13583 9.15836 4.62712 9.36908 4.25205 9.74415C3.87697 10.1192 3.66626 10.6279 3.66626 11.1584V15.1584C3.66626 15.6888 3.87697 16.1975 4.25205 16.5726C4.62712 16.9476 5.13583 17.1584 5.66626 17.1584V25.1584C5.66626 25.6888 5.87697 26.1975 6.25205 26.5726C6.62712 26.9476 7.13583 27.1584 7.66626 27.1584H25.6663C26.1967 27.1584 26.7054 26.9476 27.0805 26.5726C27.4555 26.1975 27.6663 25.6888 27.6663 25.1584V17.1584C28.1967 17.1584 28.7054 16.9476 29.0805 16.5726C29.4555 16.1975 29.6663 15.6888 29.6663 15.1584V11.1584C29.6663 10.6279 29.4555 10.1192 29.0805 9.74415C28.7054 9.36908 28.1967 9.15836 27.6663 9.15836ZM19.2913 4.72211C19.4496 4.54726 19.6424 4.40704 19.8575 4.31024C20.0726 4.21344 20.3054 4.16216 20.5413 4.15961H20.6025C20.879 4.16134 21.1523 4.21823 21.4065 4.32695C21.6607 4.43567 21.8906 4.59403 22.0828 4.79276C22.275 4.99148 22.4256 5.22657 22.5258 5.48424C22.626 5.74192 22.6737 6.017 22.6663 6.29336C22.6637 6.52923 22.6124 6.76203 22.5156 6.97714C22.4188 7.19225 22.2786 7.38503 22.1038 7.54336C20.9175 8.59336 18.9488 8.96336 17.7288 9.09336C17.8788 7.76961 18.2913 5.84586 19.2913 4.72211ZM11.28 4.76711C11.6674 4.37972 12.1921 4.16095 12.74 4.15836H12.8013C13.0371 4.16091 13.2699 4.21219 13.485 4.30899C13.7002 4.40579 13.8929 4.54601 14.0513 4.72086C15.1 5.90586 15.47 7.87086 15.6 9.08586C14.385 8.96086 12.42 8.58586 11.235 7.53711C11.0602 7.37878 10.9199 7.186 10.8231 6.97089C10.7263 6.75578 10.6751 6.52298 10.6725 6.28711C10.6648 6.00615 10.7142 5.72655 10.8177 5.46527C10.9213 5.20398 11.0769 4.96646 11.275 4.76711H11.28ZM5.66626 11.1584H15.6663V15.1584H5.66626V11.1584ZM7.66626 17.1584H15.6663V25.1584H7.66626V17.1584ZM25.6663 25.1584H17.6663V17.1584H25.6663V25.1584ZM27.6663 15.1584H17.6663V11.1584H27.6663V15.1584Z" fill="white"/>
</g>
</svg>
