<svg width="85" height="20" viewBox="0 0 85 20" fill="none" xmlns="http://www.w3.org/2000/svg">
<path id="Vector 534" d="M84.4999 18.0181C84.4899 18.8464 83.8103 19.5099 82.9819 19.4999L69.4829 19.3373C68.6545 19.3273 67.9911 18.6477 68.0011 17.8193C68.0111 16.9909 68.6907 16.3275 69.5191 16.3375L81.5182 16.482L81.6627 4.48291C81.6727 3.65454 82.3523 2.99111 83.1807 3.00109C84.0091 3.01107 84.6725 3.69068 84.6625 4.51905L84.4999 18.0181ZM83 18C81.9266 19.0478 81.9271 19.0483 81.9274 19.0486C81.9274 19.0485 81.9276 19.0488 81.9274 19.0486C81.9272 19.0483 81.9264 19.0475 81.925 19.0462C81.9224 19.0435 81.9176 19.0386 81.9107 19.0317C81.897 19.0179 81.8748 18.9957 81.8442 18.9656C81.7832 18.9054 81.6888 18.8134 81.5618 18.693C81.3079 18.4522 80.9236 18.0978 80.4149 17.6559C79.397 16.7719 77.8827 15.5396 75.9179 14.1672C71.9848 11.4202 66.2677 8.12713 59.1308 5.93382C44.932 1.57029 24.9406 1.49822 1.91386 19.1895L0.0861359 16.8105C23.9166 -1.49822 44.9251 -1.57029 60.0121 3.06618C67.518 5.37287 73.5152 8.82981 77.6357 11.7078C79.6976 13.1479 81.295 14.4468 82.382 15.3909C82.9257 15.8631 83.3422 16.247 83.6259 16.516C83.7678 16.6505 83.8765 16.7563 83.9513 16.8301C83.9887 16.867 84.0176 16.8959 84.038 16.9164C84.0482 16.9266 84.0562 16.9347 84.0621 16.9407C84.0651 16.9437 84.0675 16.9462 84.0694 16.9481C84.0703 16.9491 84.0713 16.9501 84.0718 16.9506C84.0726 16.9514 84.0734 16.9522 83 18Z" fill="black"/>
</svg>
