<svg xmlns="http://www.w3.org/2000/svg" xmlns:xlink="http://www.w3.org/1999/xlink" viewBox="75 75" width="80" height="80" preserveAspectRatio="xMidYMid slice" style="width: 100%; height: 100%; transform: translate3d(0px, 0px, 0px); content-visibility: visible;"><defs><clipPath id="__lottie_element_2"><rect width="80" height="80" x="0" y="0"></rect></clipPath><clipPath id="__lottie_element_4"><path d="M0,0 L100,0 L100,100 L0,100z"></path></clipPath><clipPath id="__lottie_element_12"><path d="M0,0 L100,0 L100,100 L0,100z"></path></clipPath><clipPath id="__lottie_element_26"><path d="M0,0 L100,0 L100,100 L0,100z"></path></clipPath><clipPath id="__lottie_element_34"><path d="M0,0 L100,0 L100,100 L0,100z"></path></clipPath><clipPath id="__lottie_element_42"><path d="M0,0 L100,0 L100,100 L0,100z"></path></clipPath></defs><g clip-path="url(#__lottie_element_2)"><g style="display: none;"><g><path></path></g></g><g clip-path="url(#__lottie_element_42)" transform="matrix(0.800000011920929,0,0,0.800000011920929,0,0)" opacity="1" style="display: block;"><g transform="matrix(1,0,0,1,49.994998931884766,49.994998931884766)" opacity="1" style="display: block;"><g opacity="1" transform="matrix(1,0,0,1,0,0)"><path fill="rgb(8,230,117)" fill-opacity="1" d=" M0.004999999888241291,0.009999999776482582 C0.00774999987334013,0.009999999776482582 0.009999999776482582,0.00774999987334013 0.009999999776482582,0.004999999888241291 C0.009999999776482582,0.0022499999031424522 0.00774999987334013,0 0.004999999888241291,0 C0.0022499999031424522,0 0,0.0022499999031424522 0,0.004999999888241291 C0,0.00774999987334013 0.0022499999031424522,0.009999999776482582 0.004999999888241291,0.009999999776482582z"></path></g></g></g><g clip-path="url(#__lottie_element_34)" transform="matrix(0.800000011920929,0,0,0.800000011920929,0,0)" opacity="1" style="display: block;"><g transform="matrix(1,0,0,1,29.26971435546875,29.26971435546875)" opacity="1" style="display: block;"><g opacity="1" transform="matrix(1,0,0,1,0,0)"><path fill="rgb(8,230,117)" fill-opacity="1" d=" M20.73028564453125,41.4605712890625 C32.13194274902344,41.4605712890625 41.4605712890625,32.13194274902344 41.4605712890625,20.73028564453125 C41.4605712890625,9.328628540039062 32.13194274902344,0 20.73028564453125,0 C9.328628540039062,0 0,9.328628540039062 0,20.73028564453125 C0,32.13194274902344 9.328628540039062,41.4605712890625 20.73028564453125,41.4605712890625z"></path></g></g></g><g clip-path="url(#__lottie_element_26)" transform="matrix(0.800000011920929,0,0,0.800000011920929,0,0)" opacity="0.27777777777777785" style="display: block;"><g transform="matrix(1,0,0,1,0.6074600219726562,0.6074600219726562)" opacity="1" style="display: block;"><g opacity="1" transform="matrix(1,0,0,1,0,0)"><path fill="rgb(8,230,117)" fill-opacity="1" d=" M49.392539978027344,98.78507995605469 C76.55843353271484,98.78507995605469 98.78507995605469,76.55843353271484 98.78507995605469,49.392539978027344 C98.78507995605469,22.226642608642578 76.55843353271484,0 49.392539978027344,0 C22.226642608642578,0 0,22.226642608642578 0,49.392539978027344 C0,76.55843353271484 22.226642608642578,98.78507995605469 49.392539978027344,98.78507995605469z"></path></g></g></g><g clip-path="url(#__lottie_element_12)" transform="matrix(0.800000011920929,0,0,0.800000011920929,0,0)" opacity="1" style="display: block;"><g transform="matrix(1,0,0,1,20,20)" opacity="1" style="display: block;"><g opacity="1" transform="matrix(1,0,0,1,0,0)"><path fill="rgb(8,230,117)" fill-opacity="1" d=" M30,0 C46.56855392456055,0 60,13.431446075439453 60,30 C60,46.56855392456055 47.45964431762695,60 30.891088485717773,60 C24.768238067626953,60 19.0039005279541,58.99057388305664 14.257425308227539,55.841583251953125 C14.257425308227539,55.841583251953125 1.188118815422058,58.81188201904297 1.188118815422058,58.81188201904297 C1.188118815422058,58.81188201904297 4.752475261688232,46.33663558959961 4.752475261688232,46.33663558959961 C1.3666337728500366,41.47895050048828 0,36.370216369628906 0,30 C0,13.431446075439453 13.431446075439453,0 30,0z"></path></g></g><g transform="matrix(1,0,0,1,20,20)" opacity="1" style="display: block;"><g opacity="1" transform="matrix(1,0,0,1,0,0)"><path stroke-linecap="butt" stroke-linejoin="miter" fill-opacity="0" stroke-miterlimit="10" stroke="rgb(255,255,255)" stroke-opacity="1" stroke-width="6" d=" M30,0 C46.56855392456055,0 60,13.431446075439453 60,30 C60,46.56855392456055 47.45964431762695,60 30.891088485717773,60 C24.768238067626953,60 19.0039005279541,58.99057388305664 14.257425308227539,55.841583251953125 C14.257425308227539,55.841583251953125 1.188118815422058,58.81188201904297 1.188118815422058,58.81188201904297 C1.188118815422058,58.81188201904297 4.752475261688232,46.33663558959961 4.752475261688232,46.33663558959961 C1.3666337728500366,41.47895050048828 0,36.370216369628906 0,30 C0,13.431446075439453 13.431446075439453,0 30,0z"></path></g></g><g transform="matrix(1,0,0,1,0,0)" opacity="1" style="display: block;"><g opacity="1" transform="matrix(1,0,0,1,0,0)"><path fill="rgb(0,0,0)" fill-opacity="0" d=" M100,0 C100,0 100,100 100,100 C100,100 0,100 0,100 C0,100 0,0 0,0 C0,0 100,0 100,0z"></path></g></g></g><g clip-path="url(#__lottie_element_4)" transform="matrix(0.800000011920929,0,0,0.800000011920929,0,0)" opacity="1" style="display: block;"><g transform="matrix(1,0,0,1,33.488216400146484,34.70000076293945)" opacity="1" style="display: block;"><g opacity="1" transform="matrix(1,0,0,1,0,0)"><path fill="rgb(255,255,255)" fill-opacity="1" d=" M0,6.9591169357299805 C0,9.576022148132324 0.09878318756818771,10.548267364501953 1.3171101808547974,12.984392166137695 C2.2829909324645996,14.915655136108398 2.5178756713867188,14.99502182006836 3.569368362426758,16.599998474121094 C3.569368362426758,16.599998474121094 4.794281005859375,18.308591842651367 4.794281005859375,18.308591842651367 C7.09263801574707,21.106277465820312 6.396764755249023,20.352291107177734 8.962934494018555,22.940536499023438 C12.286442756652832,26.28938102722168 15.664830207824707,27.876720428466797 20.02665901184082,29.461854934692383 C23.681640625,30.786842346191406 26.967830657958984,31.366662979125977 30.313289642333984,28.877626419067383 C31.898212432861328,27.698144912719727 32.71043014526367,26.551733016967773 32.914581298828125,24.433076858520508 C32.973854064941406,23.80916404724121 33.03312301635742,23.4211483001709 32.97824478149414,23.068405151367188 C32.81140899658203,22.003564834594727 31.320878982543945,21.739009857177734 29.799617767333984,20.96959114074707 C28.05005645751953,20.08332633972168 25.053630828857422,18.152063369750977 24.052627563476562,19.212493896484375 C24.052627563476562,19.212493896484375 21.473285675048828,22.497404098510742 21.473285675048828,22.497404098510742 C21.02985954284668,23.037540435791016 20.566675186157227,23.235958099365234 19.815921783447266,22.927309036254883 C16.70973777770996,21.642004013061523 13.434523582458496,19.589487075805664 11.31178092956543,17.056358337402344 C10.528100967407227,16.121591567993164 9.931011199951172,15.297057151794434 9.248308181762695,14.278514862060547 C8.317550659179688,12.882978439331055 7.937784194946289,12.55228328704834 9.254894256591797,11.258160591125488 C9.878326416015625,10.645271301269531 11.120800018310547,9.17257308959961 11.120800018310547,8.134188652038574 C11.120800018310547,7.638145446777344 10.852988243103027,7.322882175445557 10.686153411865234,6.956912040710449 C10.51492977142334,6.5843281745910645 10.391999244689941,6.211744785308838 10.225165367126465,5.801681995391846 C10.225165367126465,5.801681995391846 8.758782386779785,2.2786705493927 8.758782386779785,2.2786705493927 C7.711679935455322,-0.3338252007961273 7.656800270080566,0.17103686928749084 6.008217811584473,0.04316803067922592 C4.021576404571533,-0.11336137354373932 3.314727306365967,0.06521441042423248 1.775903582572937,2.1287553310394287 C0.9395387172698975,3.2531206607818604 0,5.038877010345459 0,6.9591169357299805"></path></g></g></g></g></svg>